P1 101 51
00000000000000000000000000000000000000000000000000100000000000000000000000000000000000000000000000000
00000000000000000000000000000000000000000000000001010000000000000000000000000000000000000000000000000
00000000000000000000000000000000000000000000000010001000000000000000000000000000000000000000000000000
00000000000000000000000000000000000000000000000101010100000000000000000000000000000000000000000000000
00000000000000000000000000000000000000000000001000000010000000000000000000000000000000000000000000000
00000000000000000000000000000000000000000000010100000101000000000000000000000000000000000000000000000
00000000000000000000000000000000000000000000100010001000100000000000000000000000000000000000000000000
00000000000000000000000000000000000000000001010101010101010000000000000000000000000000000000000000000
00000000000000000000000000000000000000000010000000000000001000000000000000000000000000000000000000000
00000000000000000000000000000000000000000101000000000000010100000000000000000000000000000000000000000
00000000000000000000000000000000000000001000100000000000100010000000000000000000000000000000000000000
00000000000000000000000000000000000000010101010000000001010101000000000000000000000000000000000000000
00000000000000000000000000000000000000100000001000000010000000100000000000000000000000000000000000000
00000000000000000000000000000000000001010000010100000101000001010000000000000000000000000000000000000
00000000000000000000000000000000000010001000100010001000100010001000000000000000000000000000000000000
00000000000000000000000000000000000101010101010101010101010101010100000000000000000000000000000000000
00000000000000000000000000000000001000000000000000000000000000000010000000000000000000000000000000000
00000000000000000000000000000000010100000000000000000000000000000101000000000000000000000000000000000
00000000000000000000000000000000100010000000000000000000000000001000100000000000000000000000000000000
00000000000000000000000000000001010101000000000000000000000000010101010000000000000000000000000000000
00000000000000000000000000000010000000100000000000000000000000100000001000000000000000000000000000000
00000000000000000000000000000101000001010000000000000000000001010000010100000000000000000000000000000
00000000000000000000000000001000100010001000000000000000000010001000100010000000000000000000000000000
00000000000000000000000000010101010101010100000000000000000101010101010101000000000000000000000000000
00000000000000000000000000100000000000000010000000000000001000000000000000100000000000000000000000000
00000000000000000000000001010000000000000101000000000000010100000000000001010000000000000000000000000
00000000000000000000000010001000000000001000100000000000100010000000000010001000000000000000000000000
00000000000000000000000101010100000000010101010000000001010101000000000101010100000000000000000000000
00000000000000000000001000000010000000100000001000000010000000100000001000000010000000000000000000000
00000000000000000000010100000101000001010000010100000101000001010000010100000101000000000000000000000
00000000000000000000100010001000100010001000100010001000100010001000100010001000100000000000000000000
00000000000000000001010101010101010101010101010101010101010101010101010101010101010000000000000000000
00000000000000000010000000000000000000000000000000000000000000000000000000000000001000000000000000000
00000000000000000101000000000000000000000000000000000000000000000000000000000000010100000000000000000
00000000000000001000100000000000000000000000000000000000000000000000000000000000100010000000000000000
00000000000000010101010000000000000000000000000000000000000000000000000000000001010101000000000000000
00000000000000100000001000000000000000000000000000000000000000000000000000000010000000100000000000000
00000000000001010000010100000000000000000000000000000000000000000000000000000101000001010000000000000
00000000000010001000100010000000000000000000000000000000000000000000000000001000100010001000000000000
00000000000101010101010101000000000000000000000000000000000000000000000000010101010101010100000000000
00000000001000000000000000100000000000000000000000000000000000000000000000100000000000000010000000000
00000000010100000000000001010000000000000000000000000000000000000000000001010000000000000101000000000
00000000100010000000000010001000000000000000000000000000000000000000000010001000000000001000100000000
00000001010101000000000101010100000000000000000000000000000000000000000101010100000000010101010000000
00000010000000100000001000000010000000000000000000000000000000000000001000000010000000100000001000000
00000101000001010000010100000101000000000000000000000000000000000000010100000101000001010000010100000
00001000100010001000100010001000100000000000000000000000000000000000100010001000100010001000100010000
00010101010101010101010101010101010000000000000000000000000000000001010101010101010101010101010101000
00100000000000000000000000000000001000000000000000000000000000000010000000000000000000000000000000100
01010000000000000000000000000000010100000000000000000000000000000101000000000000000000000000000001010
10001000000000000000000000000000100010000000000000000000000000001000100000000000000000000000000010001
