P1 21 11
000000000010000000000
000000000111000000000
000000001100100000000
000000011011110000000
000000110010001000000
000001101111011100000
000011001000010010000
000110111100111111000
001100100011100000100
011011110110010001110
110010000101111011001
